<?xml version="1.0" standalone="no"?>
<!DOCTYPE svg PUBLIC "-//W3C//DTD SVG 20010904//EN"
 "http://www.w3.org/TR/2001/REC-SVG-20010904/DTD/svg10.dtd">
<svg version="1.0" xmlns="http://www.w3.org/2000/svg"
 width="200.000000pt" height="200.000000pt" viewBox="0 0 200.000000 200.000000"
 preserveAspectRatio="xMidYMid meet">
<metadata>
Created by potrace 1.15, written by Peter Selinger 2001-2017
</metadata>
<g transform="translate(0.000000,200.000000) scale(0.100000,-0.100000)"
fill="goldenrod" stroke="none">
<path d="M0 1000 l0 -1000 1000 0 1000 0 0 1000 0 1000 -1000 0 -1000 0 0
-1000z m729 392 c63 -29 140 -168 211 -381 48 -143 60 -229 37 -265 -19 -29
-93 -59 -133 -54 -26 3 -30 9 -51 78 l-23 76 -92 -14 c-51 -8 -98 -15 -104
-17 -6 -2 -15 -25 -19 -52 -4 -26 -11 -56 -16 -65 -18 -33 -119 -16 -159 27
-21 23 -22 30 -17 112 3 61 16 125 42 208 66 217 125 331 185 363 29 14 88 8
139 -16z m581 -12 c136 -15 269 -91 339 -194 42 -61 74 -162 67 -209 -16 -96
-96 -201 -189 -247 -93 -46 -192 -56 -344 -38 -68 9 -130 22 -139 29 -15 12
-16 36 -11 224 8 264 32 411 71 437 15 11 105 10 206 -2z m570 -891 c0 -76 -2
-82 -29 -110 l-29 -29 -326 0 -326 0 0 -105 0 -105 35 0 c19 0 35 -4 35 -10 0
-6 -87 -10 -240 -10 -153 0 -240 4 -240 10 0 6 16 10 35 10 l35 0 0 105 0 105
-320 0 c-212 0 -327 4 -343 11 -35 16 -47 50 -47 134 l0 75 880 0 880 0 0 -81z"/>
<path d="M627 1028 c-46 -130 -47 -122 8 -115 26 4 55 7 64 7 42 1 43 15 5 98
-20 45 -40 82 -44 82 -5 0 -19 -33 -33 -72z"/>
<path d="M1265 1146 c-19 -14 -33 -82 -34 -167 -1 -52 2 -54 79 -69 60 -11
139 4 168 34 14 13 26 40 29 65 5 37 2 44 -29 74 -53 50 -180 87 -213 63z"/>
</g>
</svg>
